<?xml version="1.0" encoding="UTF-8" standalone="no"?>
<svg
   xmlns:dc="http://purl.org/dc/elements/1.1/"
   xmlns:cc="http://creativecommons.org/ns#"
   xmlns:rdf="http://www.w3.org/1999/02/22-rdf-syntax-ns#"
   xmlns:svg="http://www.w3.org/2000/svg"
   xmlns="http://www.w3.org/2000/svg"
   xmlns:sodipodi="http://sodipodi.sourceforge.net/DTD/sodipodi-0.dtd"
   xmlns:inkscape="http://www.inkscape.org/namespaces/inkscape"
   width="16"
   height="16"
   version="1.1"
   id="svg74"
   sodipodi:docname="workspace-span-symbolic-off.svg"
   inkscape:export-filename="/home/arnold/Downloads/workspace-span-symbolic2.png"
   inkscape:export-xdpi="96"
   inkscape:export-ydpi="96"
   inkscape:version="1.0.1 (3bc2e813f5, 2020-09-07)">
  <metadata
     id="metadata80">
    <rdf:RDF>
      <cc:Work
         rdf:about="">
        <dc:format>image/svg+xml</dc:format>
        <dc:type
           rdf:resource="http://purl.org/dc/dcmitype/StillImage" />
        <dc:title></dc:title>
      </cc:Work>
    </rdf:RDF>
  </metadata>
  <defs
     id="defs78" />
  <sodipodi:namedview
     pagecolor="#ffffff"
     bordercolor="#666666"
     borderopacity="1"
     objecttolerance="10"
     gridtolerance="10"
     guidetolerance="10"
     inkscape:pageopacity="0"
     inkscape:pageshadow="2"
     inkscape:window-width="1920"
     inkscape:window-height="1044"
     id="namedview76"
     showgrid="true"
     inkscape:snap-smooth-nodes="true"
     inkscape:zoom="45.254834"
     inkscape:cx="8.2362024"
     inkscape:cy="8.0146019"
     inkscape:window-x="1920"
     inkscape:window-y="0"
     inkscape:window-maximized="1"
     inkscape:current-layer="svg74"
     inkscape:document-rotation="0"
     showguides="true"
     inkscape:guide-bbox="true">
    <inkscape:grid
       type="xygrid"
       id="grid945" />
  </sodipodi:namedview>
  <path
     style="fill:#aaaaaa;fill-opacity:1;opacity:0.3"
     d="m 14,13 v 1 H 2 V 13 L 0,11 v 3 c 0,0 0,2 2,2 h 12 c 0,0 2,0 2,-2 V 11 Z M 16,5 V 2 C 16,2 16,0 14,0 H 2 C 0,0 0,2 0,2 V 5 L 2,3 V 2 h 12 v 1 z"
     id="path72"
     sodipodi:nodetypes="ccccccscsccccssccccccc" />
  <path
     id="rect836"
     style="opacity:0.3;fill:#aaaaaa;stroke-width:1.94197"
     d="M 4 4 L 1.4140625 6.5859375 L 0 8 L 1.4140625 9.4140625 L 4 12 L 5.4140625 10.585938 L 3.828125 9 L 12.171875 9 L 10.585938 10.585938 L 12 12 L 14.585938 9.4140625 L 16 8 L 14.585938 6.5859375 L 12 4 L 10.585938 5.4140625 L 12.171875 7 L 3.828125 7 L 5.4140625 5.4140625 L 4 4 z " />
</svg>
